<svg data-name="グループ 3" xmlns="http://www.w3.org/2000/svg" width="50.125" height="50"><circle data-name="楕円形 1" cx="25.125" cy="25" r="25" fill="#fff"/><path data-name="シェイプ 3" d="M24.993.027a24.982 24.982 0 1024.982 24.982A24.981 24.981 0 0024.993.027zM38.08 31.881c-3.5 4.027-11.324 8.933-13.1 9.683s-1.517-.478-1.444-.9l.238-1.428a3.43 3.43 0 00-.054-1.508 2.068 2.068 0 00-1.469-.823c-8.015-1.059-13.948-6.662-13.948-13.352 0-7.463 7.482-13.534 16.677-13.534s16.678 6.071 16.678 13.534a12.041 12.041 0 01-3.575 8.327zm-6.654-4.018h-.001a.318.318 0 01-.318-.318v-7.272a.318.318 0 01.318-.318h4.686a.319.319 0 01.318.318v1.183a.318.318 0 01-.318.318h-3.186V23h3.185a.319.319 0 01.318.318V24.5a.318.318 0 01-.318.318h-3.185v1.228h3.185a.32.32 0 01.318.319v1.183a.318.318 0 01-.318.318h-4.685zm-17.331 0h-.007a.318.318 0 01-.318-.318v-7.273a.318.318 0 01.318-.318h1.183a.32.32 0 01.319.318v5.777h3.184a.32.32 0 01.318.319v1.183a.318.318 0 01-.318.318h-4.679zm7.818-7.6v7.279a.319.319 0 01-.318.318h-1.183a.319.319 0 01-.319-.318v-7.279a.318.318 0 01.319-.318h1.183a.318.318 0 01.318.321zm8.052 0v7.279a.319.319 0 01-.319.318H28.47a.32.32 0 01-.083-.011l-.022-.007h-.01l-.015-.007-.016-.007h-.009l-.02-.012a.327.327 0 01-.082-.08l-3.334-4.5v4.322a.319.319 0 01-.319.318h-1.182a.319.319 0 01-.319-.318v-7.279a.318.318 0 01.319-.318h1.261l.019.007h.011l.018.008h.01l.018.01.01.014.016.011.009.007a.122.122 0 01.017.015h.006a.18.18 0 01.019.02.408.408 0 01.025.033l3.33 4.5v-4.323a.318.318 0 01.319-.318h1.182a.318.318 0 01.317.321z" fill="#4cc764" fill-rule="evenodd"/></svg>